<svg width="236" height="98" xmlns="http://www.w3.org/2000/svg">
 <!-- Created with Method Draw - http://github.com/duopixel/Method-Draw/ -->

 <g>
  <title>background</title>
  <rect fill="none" id="canvas_background" height="100" width="238" y="-1" x="-1"/>
  <g display="none" overflow="visible" y="0" x="0" height="100%" width="100%" id="canvasGrid">
   <rect fill="url(#gridpattern)" stroke-width="0" y="0" x="0" height="100%" width="100%"/>
  </g>
 </g>
 <g>
  <title>Layer 1</title>
  <metadata transform="matrix(0.16000000476837162,0,0,0.16000000476837162,0,0) ">Created by potrace 1.16, written by Peter Selinger 2001-2019</metadata>
  <!-- Created with Method Draw - http://github.com/duopixel/Method-Draw/ -->
  <g stroke="null" id="svg_32">
   <g stroke="null" transform="matrix(0.29599675526117264,0,0,0.294120793668614,-1721.5008397955448,-1224.2248298242928) " id="svg_31">
    <title stroke="null" transform="translate(-261.67828369140625,-202.2325897216797) translate(-0.001033248845487833,-9.094947017729282e-13) translate(6.853942394256592,-9.094947017729282e-13) translate(6.911524295806885,-9.094947017729282e-13) translate(6.8802289962768555,-9.094947017729282e-13) translate(13.748356819152832,-9.094947017729282e-13) translate(6.9201579093933105,-9.094947017729282e-13) translate(6.888862609863281,-9.094947017729282e-13) translate(13.756990432739258,-9.094947017729282e-13) translate(6.883853912353516,-9.094947017729282e-13) translate(6.897006034851074,-9.094947017729282e-13) translate(13.765115737915039,-9.094947017729282e-13) translate(6.891997337341309,-9.094947017729282e-13) translate(13.760125160217285,-9.094947017729282e-13) translate(6.887479305267334,-9.094947017729282e-13) translate(6.900613784790039,-9.094947017729282e-13) translate(6.869327068328857,-9.094947017729282e-13) translate(20.681299209594727,-9.094947017729282e-13) translate(6.87747049331665,-9.094947017729282e-13) translate(-0.008800127543509007,-9.094947017729282e-13) translate(6.890614032745361,-9.094947017729282e-13) translate(0.0043431478552520275,-9.094947017729282e-13) translate(6.859318733215332,-9.094947017729282e-13) translate(6.916900634765625,-9.094947017729282e-13) translate(-0.01380875799804926,-9.094947017729282e-13) translate(6.885605335235596,-9.094947017729282e-13) translate(6.8992390632629395,-9.094947017729282e-13) translate(13.767362594604492,-9.094947017729282e-13) translate(-0.005179378669708967,-9.094947017729282e-13) translate(-0.005179378669708967,-9.094947017729282e-13) translate(-0.005179378669708967,-9.094947017729282e-13) translate(-6.860159397125244,-9.094947017729282e-13) translate(-6.918222904205322,-9.094947017729282e-13) translate(-6.886936187744141,-9.094947017729282e-13) translate(-6.855640888214111,-9.094947017729282e-13) translate(-0.01380875799804926,-9.094947017729282e-13) translate(-6.868784427642822,-9.094947017729282e-13) translate(-13.781341552734375,-9.094947017729282e-13) translate(-13.763198852539062,-9.094947017729282e-13) translate(-6.890070915222168,-9.094947017729282e-13) translate(-6.903214454650879,-9.094947017729282e-13) translate(-6.871927738189697,-9.094947017729282e-13) translate(-6.885062217712402,-9.094947017729282e-13) translate(0.001208375790156424,-9.094947017729282e-13) translate(-6.898687362670898,-9.094947017729282e-13) translate(-0.012416498735547066,-9.094947017729282e-13) translate(0.032503556460142136,-9.094947017729282e-13) translate(-0.012416498735547066,-9.094947017729282e-13) translate(-0.012416498735547066,-9.094947017729282e-13) translate(-6.867409706115723,-9.094947017729282e-13) translate(-0.025568529963493347,-9.094947017729282e-13) translate(-6.880544185638428,-9.094947017729282e-13) translate(0.005726650357246399,-9.094947017729282e-13) translate(0.005726650357246399,-9.094947017729282e-13) translate(0.005726650357246399,-9.094947017729282e-13) translate(0.005726650357246399,-9.094947017729282e-13) translate(-0.03870305046439171,-9.094947017729282e-13) translate(-6.849248886108398,-9.094947017729282e-13) translate(-6.906830787658691,-9.094947017729282e-13) translate(-6.875535488128662,-9.094947017729282e-13) translate(-6.888687610626221,-9.094947017729282e-13) translate(-6.901822090148926,-9.094947017729282e-13) translate(-13.769949913024902,-9.094947017729282e-13) translate(0.0025918784085661173,-9.094947017729282e-13) translate(-6.8973212242126465,-9.094947017729282e-13) translate(0.03388705849647522,-9.094947017729282e-13) translate(-6.910455703735352,-9.094947017729282e-13) translate(0.020244672894477844,-9.094947017729282e-13) translate(-13.778583526611328,-9.094947017729282e-13) translate(-0.006041878834366798,-9.094947017729282e-13) translate(-6.905447006225586,-9.094947017729282e-13) translate(-6.87416934967041,-9.094947017729282e-13) translate(-6.887303829193115,-9.094947017729282e-13) translate(-6.856009006500244,-9.094947017729282e-13) translate(-6.913590431213379,-9.094947017729282e-13) translate(-13.781718254089355,-9.094947017729282e-13) translate(-6.864169597625732,-9.094947017729282e-13) translate(-25.261568069458008,-9.094947017729282e-13) translate(-6.866901874542236,-9.094947017729282e-13) translate(-6.880036354064941,-9.094947017729282e-13) translate(-13.79257583618164,-9.094947017729282e-13) translate(6.87937068939209,-9.094947017729282e-13) translate(6.892505168914795,-9.094947017729282e-13) translate(6.9056396484375,-9.094947017729282e-13) translate(6.874361991882324,-9.094947017729282e-13) translate(-0.011908630840480328,-9.094947017729282e-13) translate(6.88798713684082,-9.094947017729282e-13) translate(6.901121616363525,-9.094947017729282e-13) translate(6.86984395980835,-9.094947017729282e-13) translate(6.882978439331055,-9.094947017729282e-13) translate(6.89611291885376,-9.094947017729282e-13) translate(6.864835262298584,-9.094947017729282e-13) translate(13.777392387390137,-9.094947017729282e-13) translate(0.004851015750318766,-9.094947017729282e-13) translate(6.904273986816406,-9.094947017729282e-13) translate(6.872978687286377,-9.094947017729282e-13) translate(6.931033134460449,-9.094947017729282e-13) translate(-270.8599853515625,-243.5983428955078) translate(4.590847015380859,2.298097610473633) translate(-36.726776123046875,-45.961952209472656) translate(20.658811569213867,45.961952209472656) translate(6.886270999908447,22.980976104736328) translate(0,-9.094947017729282e-13) translate(0,-9.094947017729282e-13) translate(-72.72472381591797,-73.20531463623047) translate(9.094947017729282e-13,9.094947017729282e-13) translate(409.9029846191406,-4.118854522705078) translate(9.094947017729282e-13,-9.094947017729282e-13) translate(9.094947017729282e-13,-9.094947017729282e-13) translate(26.200057983398438,105.63359832763672) translate(-19.365259170532227,-65.46307373046875) translate(25.060924530029297,188.9502410888672) translate(-165.1742706298828,-159.19430541992188) translate(123.02635955810547,25.292552947998047) translate(9.094947017729282e-13,-38.6827278137207) translate(4.55653190612793,63.97528076171875) translate(9.094947017729282e-13,-1.4877971410751343) translate(-12.530462265014648,31.24374008178711) translate(5995.044921875,0) translate(0,4500) ">Layer 1</title>
    <text stroke="#000" fill="#000000" stroke-width="2" x="2203.28667" y="1912.03741" id="svg_25" font-size="47" font-family="Helvetica, Arial, sans-serif" text-anchor="start" xml:space="preserve" transform="matrix(2.848818155917083,0,0,2.498530201877713,-441.63147697447414,-299.18977638986684) ">PASSIVE</text>
    <path stroke="#000" fill="#0de67c" stroke-width="0" stroke-opacity="null" d="m6288.81981,4412.89472l83.53572,-144.10289l83.53572,144.10289l-167.07144,0z" id="svg_24" transform="rotate(128 6372.357421875001,4340.84375) "/>
    <path stroke="#000" fill="#f7dd6c" stroke-width="0" stroke-opacity="null" d="m6406.30307,4353.95611l84.83382,-148.48504l84.83382,148.48504l-169.66764,0z" id="svg_23" transform="rotate(-139 6491.139160156249,4279.713867187499) "/>
    <path stroke="#000" fill="#e684c3" stroke-width="0" stroke-opacity="null" d="m6400.91913,4482.09712l92.81189,-139.63654l92.81189,139.63654l-185.62378,0z" id="svg_22" transform="rotate(-6 6493.73291015624,4412.279296875002) "/>
   </g>
  </g>
 </g>
</svg>